<?xml version="1.0" standalone="no"?>
<!DOCTYPE svg PUBLIC "-//W3C//DTD SVG 20010904//EN"
 "http://www.w3.org/TR/2001/REC-SVG-20010904/DTD/svg10.dtd">
<svg version="1.0" xmlns="http://www.w3.org/2000/svg"
 width="1280.000000pt" height="1237.000000pt" viewBox="0 0 1280.000000 1237.000000"
 preserveAspectRatio="xMidYMid meet">
<metadata>
Created by potrace 1.15, written by Peter Selinger 2001-2017
</metadata>
<g transform="translate(0.000000,1237.000000) scale(0.100000,-0.100000)"
fill="#000000" stroke="none">
<path d="M3015 12364 c-135 -11 -333 -38 -445 -60 -882 -176 -1596 -698 -2132
-1557 -379 -607 -510 -1181 -397 -1739 182 -905 901 -1821 2013 -2565 93 -63
191 -126 218 -141 l48 -27 0 -2922 c0 -2089 3 -2937 11 -2975 37 -178 195
-336 368 -368 29 -5 161 -10 292 -10 l239 0 0 3357 0 3358 -27 53 c-40 78
-104 137 -249 229 -421 266 -868 633 -1168 961 -413 453 -647 871 -718 1286
-26 152 -21 390 11 527 75 329 276 675 569 981 567 592 1276 762 2393 573 854
-144 1635 -427 1937 -699 l52 -48 -152 -162 c-426 -451 -924 -1057 -993 -1208
-124 -271 28 -576 329 -663 91 -26 181 -16 276 32 67 34 105 67 360 318 834
820 1642 1431 2405 1820 602 307 1106 439 1605 422 314 -11 568 -54 825 -138
514 -169 892 -497 1033 -899 34 -97 67 -253 82 -385 21 -187 7 -504 -30 -710
-51 -279 -163 -599 -294 -839 -186 -340 -539 -637 -1025 -860 -108 -50 -306
-130 -376 -153 l-30 -10 -3 -3571 -2 -3572 263 0 c287 0 335 7 431 58 67 35
157 126 189 188 62 122 57 -141 57 3213 l1 3056 144 79 c290 158 536 338 745
546 224 222 368 425 515 725 440 895 530 1728 268 2475 -48 137 -180 398 -267
527 -403 601 -1039 1035 -1791 1222 -437 108 -885 128 -1360 60 -850 -121
-1938 -505 -2472 -872 l-73 -49 -72 67 c-160 148 -363 281 -643 420 -632 314
-1464 547 -2250 630 -143 15 -603 27 -710 19z"/>
<path d="M6870 6541 c-120 -25 -231 -146 -339 -372 -190 -396 -303 -1002 -361
-1929 -18 -290 -25 -927 -10 -1032 27 -199 83 -335 194 -472 l63 -78 7 -1196
c4 -746 11 -1217 17 -1249 14 -73 63 -139 129 -177 47 -26 64 -30 125 -30 52
0 81 6 111 22 54 27 117 100 132 150 9 30 12 808 12 3206 l0 3166 -22 -1 c-13
-1 -39 -4 -58 -8z"/>
<path d="M8126 6329 c-223 -55 -454 -357 -581 -759 -38 -123 -52 -204 -66
-393 -14 -196 -1 -439 31 -563 33 -128 100 -242 209 -358 119 -125 177 -205
236 -327 71 -149 97 -264 98 -439 0 -160 -16 -257 -79 -473 l-34 -119 0 -1327
c0 -1501 -6 -1386 80 -1472 132 -132 353 -91 434 81 l21 45 3 1323 2 1322 -34
173 c-51 251 -59 332 -53 497 10 291 89 480 291 700 142 155 210 281 235 440
27 166 7 564 -39 772 -69 308 -222 625 -370 761 -87 81 -171 120 -268 123 -42
2 -94 -1 -116 -7z"/>
<path d="M4595 6198 c-4 -12 -168 -1190 -201 -1445 -7 -55 12 -192 37 -268 29
-85 85 -176 174 -279 181 -211 259 -379 285 -618 18 -161 0 -315 -65 -564
l-35 -132 0 -1344 0 -1344 26 -52 c47 -94 131 -146 239 -146 113 0 199 56 246
159 18 38 19 105 19 1390 0 1320 -1 1352 -21 1455 -36 187 -49 302 -49 451 0
318 74 525 268 748 126 146 170 238 192 401 11 82 9 102 -49 510 -33 234 -81
575 -107 758 l-47 332 -49 0 -48 0 5 -107 c3 -60 10 -344 15 -633 5 -289 13
-614 16 -722 l7 -198 -92 0 -91 0 0 88 c0 48 -4 281 -10 517 -5 237 -12 571
-16 743 l-6 312 -54 0 -54 0 0 -835 0 -835 -80 0 -80 0 0 308 c0 170 -3 546
-7 835 l-6 527 -54 0 -53 0 0 -57 c0 -78 -18 -1025 -26 -1350 l-6 -263 -86 0
-85 0 7 223 c3 122 11 436 16 697 5 261 12 537 15 613 l6 137 -46 0 c-27 0
-47 -5 -50 -12z"/>
</g>
</svg>
